<?xml version="1.0" encoding="UTF-8" standalone="no"?>
<!DOCTYPE svg PUBLIC "-//W3C//DTD SVG 1.1//EN"
 "http://www.w3.org/Graphics/SVG/1.1/DTD/svg11.dtd">
<!-- Generated by graphviz version 2.26.3 (20100126.1600)
 -->
<!-- Title: controllers_diagram Pages: 1 -->
<svg width="573pt" height="569pt"
 viewBox="0.00 0.00 573.00 569.00" xmlns="http://www.w3.org/2000/svg" xmlns:xlink="http://www.w3.org/1999/xlink">
<g id="graph1" class="graph" transform="scale(1 1) rotate(0) translate(4 565)">
<title>controllers_diagram</title>
<polygon fill="white" stroke="white" points="-4,5 -4,-565 570,-565 570,5 -4,5"/>
<!-- _diagram_info -->
<g id="node1" class="node"><title>_diagram_info</title>
<text text-anchor="start" x="339" y="-388.3" font-family="Times Roman,serif" font-size="13.00">Controllers diagram</text>
<text text-anchor="start" x="339" y="-375.3" font-family="Times Roman,serif" font-size="13.00">Date: May 25 2012 &#45; 09:01</text>
<text text-anchor="start" x="339" y="-362.3" font-family="Times Roman,serif" font-size="13.00">Migration version: 20120522151353</text>
<text text-anchor="start" x="339" y="-349.3" font-family="Times Roman,serif" font-size="13.00">Generated by RailRoady 1.0.7</text>
<text text-anchor="start" x="339" y="-336.3" font-family="Times Roman,serif" font-size="13.00">http://railroady.prestonlee.com</text>
</g>
<!-- BranchesController -->
<g id="node2" class="node"><title>BranchesController</title>
<polyline fill="none" stroke="black" points="448,-436.5 552,-436.5 "/>
<path fill="none" stroke="black" d="M552,-436.5C558,-436.5 564,-442.5 564,-448.5"/>
<polyline fill="none" stroke="black" points="564,-448.5 564,-532.5 "/>
<path fill="none" stroke="black" d="M564,-532.5C564,-538.5 558,-544.5 552,-544.5"/>
<polyline fill="none" stroke="black" points="552,-544.5 448,-544.5 "/>
<path fill="none" stroke="black" d="M448,-544.5C442,-544.5 436,-538.5 436,-532.5"/>
<polyline fill="none" stroke="black" points="436,-532.5 436,-448.5 "/>
<path fill="none" stroke="black" d="M436,-448.5C436,-442.5 442,-436.5 448,-436.5"/>
<text text-anchor="middle" x="500" y="-527.9" font-family="Times Roman,serif" font-size="14.00">BranchesController</text>
<polyline fill="none" stroke="black" points="436,-521.5 564,-521.5 "/>
<text text-anchor="start" x="444" y="-504.9" font-family="Times Roman,serif" font-size="14.00">index</text>
<text text-anchor="start" x="444" y="-489.9" font-family="Times Roman,serif" font-size="14.00">show</text>
<polyline fill="none" stroke="black" points="436,-483.5 564,-483.5 "/>
<polyline fill="none" stroke="black" points="436,-459.5 564,-459.5 "/>
<text text-anchor="start" x="444" y="-442.9" font-family="Times Roman,serif" font-size="14.00">_layout</text>
</g>
<!-- ActionsController -->
<g id="node3" class="node"><title>ActionsController</title>
<polyline fill="none" stroke="black" points="298,-451.5 394,-451.5 "/>
<path fill="none" stroke="black" d="M394,-451.5C400,-451.5 406,-457.5 406,-463.5"/>
<polyline fill="none" stroke="black" points="406,-463.5 406,-547.5 "/>
<path fill="none" stroke="black" d="M406,-547.5C406,-553.5 400,-559.5 394,-559.5"/>
<polyline fill="none" stroke="black" points="394,-559.5 298,-559.5 "/>
<path fill="none" stroke="black" d="M298,-559.5C292,-559.5 286,-553.5 286,-547.5"/>
<polyline fill="none" stroke="black" points="286,-547.5 286,-463.5 "/>
<path fill="none" stroke="black" d="M286,-463.5C286,-457.5 292,-451.5 298,-451.5"/>
<text text-anchor="middle" x="346" y="-542.9" font-family="Times Roman,serif" font-size="14.00">ActionsController</text>
<polyline fill="none" stroke="black" points="286,-536.5 406,-536.5 "/>
<text text-anchor="start" x="294" y="-519.9" font-family="Times Roman,serif" font-size="14.00">index</text>
<text text-anchor="start" x="294" y="-504.9" font-family="Times Roman,serif" font-size="14.00">show</text>
<polyline fill="none" stroke="black" points="286,-498.5 406,-498.5 "/>
<polyline fill="none" stroke="black" points="286,-474.5 406,-474.5 "/>
<text text-anchor="start" x="294" y="-457.9" font-family="Times Roman,serif" font-size="14.00">_layout</text>
</g>
<!-- StepsController -->
<g id="node4" class="node"><title>StepsController</title>
<polyline fill="none" stroke="black" points="13,-1.5 94,-1.5 "/>
<path fill="none" stroke="black" d="M94,-1.5C100,-1.5 106,-7.5 106,-13.5"/>
<polyline fill="none" stroke="black" points="106,-13.5 106,-97.5 "/>
<path fill="none" stroke="black" d="M106,-97.5C106,-103.5 100,-109.5 94,-109.5"/>
<polyline fill="none" stroke="black" points="94,-109.5 13,-109.5 "/>
<path fill="none" stroke="black" d="M13,-109.5C7,-109.5 1,-103.5 1,-97.5"/>
<polyline fill="none" stroke="black" points="1,-97.5 1,-13.5 "/>
<path fill="none" stroke="black" d="M1,-13.5C1,-7.5 7,-1.5 13,-1.5"/>
<text text-anchor="middle" x="53.5" y="-92.9" font-family="Times Roman,serif" font-size="14.00">StepsController</text>
<polyline fill="none" stroke="black" points="1,-86.5 106,-86.5 "/>
<text text-anchor="start" x="9" y="-69.9" font-family="Times Roman,serif" font-size="14.00">index</text>
<text text-anchor="start" x="9" y="-54.9" font-family="Times Roman,serif" font-size="14.00">show</text>
<polyline fill="none" stroke="black" points="1,-48.5 106,-48.5 "/>
<polyline fill="none" stroke="black" points="1,-24.5 106,-24.5 "/>
<text text-anchor="start" x="9" y="-7.9" font-family="Times Roman,serif" font-size="14.00">_layout</text>
</g>
<!-- ApplicationController -->
<g id="node5" class="node"><title>ApplicationController</title>
<polyline fill="none" stroke="black" points="133,-136.5 310,-136.5 "/>
<path fill="none" stroke="black" d="M310,-136.5C316,-136.5 322,-142.5 322,-148.5"/>
<polyline fill="none" stroke="black" points="322,-148.5 322,-291.5 "/>
<path fill="none" stroke="black" d="M322,-291.5C322,-297.5 316,-303.5 310,-303.5"/>
<polyline fill="none" stroke="black" points="310,-303.5 133,-303.5 "/>
<path fill="none" stroke="black" d="M133,-303.5C127,-303.5 121,-297.5 121,-291.5"/>
<polyline fill="none" stroke="black" points="121,-291.5 121,-148.5 "/>
<path fill="none" stroke="black" d="M121,-148.5C121,-142.5 127,-136.5 133,-136.5"/>
<text text-anchor="middle" x="221.5" y="-286.9" font-family="Times Roman,serif" font-size="14.00">ApplicationController</text>
<polyline fill="none" stroke="black" points="121,-280.5 322,-280.5 "/>
<text text-anchor="start" x="129" y="-263.9" font-family="Times Roman,serif" font-size="14.00">_one_time_conditions_valid_76?</text>
<text text-anchor="start" x="129" y="-248.9" font-family="Times Roman,serif" font-size="14.00">_one_time_conditions_valid_78?</text>
<text text-anchor="start" x="129" y="-233.9" font-family="Times Roman,serif" font-size="14.00">_one_time_conditions_valid_80?</text>
<text text-anchor="start" x="129" y="-218.9" font-family="Times Roman,serif" font-size="14.00">sidebar_tiles</text>
<polyline fill="none" stroke="black" points="121,-212.5 322,-212.5 "/>
<text text-anchor="start" x="129" y="-195.9" font-family="Times Roman,serif" font-size="14.00">fetch_menu</text>
<text text-anchor="start" x="129" y="-180.9" font-family="Times Roman,serif" font-size="14.00">fetch_sidebar</text>
<polyline fill="none" stroke="black" points="121,-174.5 322,-174.5 "/>
<text text-anchor="start" x="129" y="-157.9" font-family="Times Roman,serif" font-size="14.00">_layout</text>
<text text-anchor="start" x="129" y="-142.9" font-family="Times Roman,serif" font-size="14.00">default_fetcher</text>
</g>
<!-- BuildsController -->
<g id="node6" class="node"><title>BuildsController</title>
<polyline fill="none" stroke="black" points="13,-451.5 99,-451.5 "/>
<path fill="none" stroke="black" d="M99,-451.5C105,-451.5 111,-457.5 111,-463.5"/>
<polyline fill="none" stroke="black" points="111,-463.5 111,-547.5 "/>
<path fill="none" stroke="black" d="M111,-547.5C111,-553.5 105,-559.5 99,-559.5"/>
<polyline fill="none" stroke="black" points="99,-559.5 13,-559.5 "/>
<path fill="none" stroke="black" d="M13,-559.5C7,-559.5 1,-553.5 1,-547.5"/>
<polyline fill="none" stroke="black" points="1,-547.5 1,-463.5 "/>
<path fill="none" stroke="black" d="M1,-463.5C1,-457.5 7,-451.5 13,-451.5"/>
<text text-anchor="middle" x="56" y="-542.9" font-family="Times Roman,serif" font-size="14.00">BuildsController</text>
<polyline fill="none" stroke="black" points="1,-536.5 111,-536.5 "/>
<text text-anchor="start" x="9" y="-519.9" font-family="Times Roman,serif" font-size="14.00">index</text>
<text text-anchor="start" x="9" y="-504.9" font-family="Times Roman,serif" font-size="14.00">show</text>
<polyline fill="none" stroke="black" points="1,-498.5 111,-498.5 "/>
<polyline fill="none" stroke="black" points="1,-474.5 111,-474.5 "/>
<text text-anchor="start" x="9" y="-457.9" font-family="Times Roman,serif" font-size="14.00">_layout</text>
</g>
<!-- DependenciesController -->
<g id="node7" class="node"><title>DependenciesController</title>
<polyline fill="none" stroke="black" points="163,-331.5 291,-331.5 "/>
<path fill="none" stroke="black" d="M291,-331.5C297,-331.5 303,-337.5 303,-343.5"/>
<polyline fill="none" stroke="black" points="303,-343.5 303,-412.5 "/>
<path fill="none" stroke="black" d="M303,-412.5C303,-418.5 297,-424.5 291,-424.5"/>
<polyline fill="none" stroke="black" points="291,-424.5 163,-424.5 "/>
<path fill="none" stroke="black" d="M163,-424.5C157,-424.5 151,-418.5 151,-412.5"/>
<polyline fill="none" stroke="black" points="151,-412.5 151,-343.5 "/>
<path fill="none" stroke="black" d="M151,-343.5C151,-337.5 157,-331.5 163,-331.5"/>
<text text-anchor="middle" x="227" y="-407.9" font-family="Times Roman,serif" font-size="14.00">DependenciesController</text>
<polyline fill="none" stroke="black" points="151,-401.5 303,-401.5 "/>
<text text-anchor="start" x="159" y="-384.9" font-family="Times Roman,serif" font-size="14.00">index</text>
<polyline fill="none" stroke="black" points="151,-378.5 303,-378.5 "/>
<polyline fill="none" stroke="black" points="151,-354.5 303,-354.5 "/>
<text text-anchor="start" x="159" y="-337.9" font-family="Times Roman,serif" font-size="14.00">_layout</text>
</g>
<!-- UsersController -->
<g id="node8" class="node"><title>UsersController</title>
<polyline fill="none" stroke="black" points="28,-331.5 111,-331.5 "/>
<path fill="none" stroke="black" d="M111,-331.5C117,-331.5 123,-337.5 123,-343.5"/>
<polyline fill="none" stroke="black" points="123,-343.5 123,-412.5 "/>
<path fill="none" stroke="black" d="M123,-412.5C123,-418.5 117,-424.5 111,-424.5"/>
<polyline fill="none" stroke="black" points="111,-424.5 28,-424.5 "/>
<path fill="none" stroke="black" d="M28,-424.5C22,-424.5 16,-418.5 16,-412.5"/>
<polyline fill="none" stroke="black" points="16,-412.5 16,-343.5 "/>
<path fill="none" stroke="black" d="M16,-343.5C16,-337.5 22,-331.5 28,-331.5"/>
<text text-anchor="middle" x="69.5" y="-407.9" font-family="Times Roman,serif" font-size="14.00">UsersController</text>
<polyline fill="none" stroke="black" points="16,-401.5 123,-401.5 "/>
<text text-anchor="start" x="24" y="-384.9" font-family="Times Roman,serif" font-size="14.00">create</text>
<polyline fill="none" stroke="black" points="16,-378.5 123,-378.5 "/>
<polyline fill="none" stroke="black" points="16,-354.5 123,-354.5 "/>
<text text-anchor="start" x="24" y="-337.9" font-family="Times Roman,serif" font-size="14.00">_layout</text>
</g>
<!-- SessionsController -->
<g id="node9" class="node"><title>SessionsController</title>
<polyline fill="none" stroke="black" points="358,-106.5 456,-106.5 "/>
<path fill="none" stroke="black" d="M456,-106.5C462,-106.5 468,-112.5 468,-118.5"/>
<polyline fill="none" stroke="black" points="468,-118.5 468,-217.5 "/>
<path fill="none" stroke="black" d="M468,-217.5C468,-223.5 462,-229.5 456,-229.5"/>
<polyline fill="none" stroke="black" points="456,-229.5 358,-229.5 "/>
<path fill="none" stroke="black" d="M358,-229.5C352,-229.5 346,-223.5 346,-217.5"/>
<polyline fill="none" stroke="black" points="346,-217.5 346,-118.5 "/>
<path fill="none" stroke="black" d="M346,-118.5C346,-112.5 352,-106.5 358,-106.5"/>
<text text-anchor="middle" x="407" y="-212.9" font-family="Times Roman,serif" font-size="14.00">SessionsController</text>
<polyline fill="none" stroke="black" points="346,-206.5 468,-206.5 "/>
<text text-anchor="start" x="354" y="-189.9" font-family="Times Roman,serif" font-size="14.00">create</text>
<text text-anchor="start" x="354" y="-174.9" font-family="Times Roman,serif" font-size="14.00">destroy</text>
<text text-anchor="start" x="354" y="-159.9" font-family="Times Roman,serif" font-size="14.00">new</text>
<polyline fill="none" stroke="black" points="346,-153.5 468,-153.5 "/>
<polyline fill="none" stroke="black" points="346,-129.5 468,-129.5 "/>
<text text-anchor="start" x="354" y="-112.9" font-family="Times Roman,serif" font-size="14.00">_layout</text>
</g>
<!-- ProjectsController -->
<g id="node10" class="node"><title>ProjectsController</title>
<polyline fill="none" stroke="black" points="148,-451.5 244,-451.5 "/>
<path fill="none" stroke="black" d="M244,-451.5C250,-451.5 256,-457.5 256,-463.5"/>
<polyline fill="none" stroke="black" points="256,-463.5 256,-547.5 "/>
<path fill="none" stroke="black" d="M256,-547.5C256,-553.5 250,-559.5 244,-559.5"/>
<polyline fill="none" stroke="black" points="244,-559.5 148,-559.5 "/>
<path fill="none" stroke="black" d="M148,-559.5C142,-559.5 136,-553.5 136,-547.5"/>
<polyline fill="none" stroke="black" points="136,-547.5 136,-463.5 "/>
<path fill="none" stroke="black" d="M136,-463.5C136,-457.5 142,-451.5 148,-451.5"/>
<text text-anchor="middle" x="196" y="-542.9" font-family="Times Roman,serif" font-size="14.00">ProjectsController</text>
<polyline fill="none" stroke="black" points="136,-536.5 256,-536.5 "/>
<text text-anchor="start" x="144" y="-519.9" font-family="Times Roman,serif" font-size="14.00">index</text>
<text text-anchor="start" x="144" y="-504.9" font-family="Times Roman,serif" font-size="14.00">show</text>
<polyline fill="none" stroke="black" points="136,-498.5 256,-498.5 "/>
<polyline fill="none" stroke="black" points="136,-474.5 256,-474.5 "/>
<text text-anchor="start" x="144" y="-457.9" font-family="Times Roman,serif" font-size="14.00">_layout</text>
</g>
</g>
</svg>
