<?xml version="1.0" encoding="UTF-8" standalone="no"?>
<!DOCTYPE svg PUBLIC "-//W3C//DTD SVG 1.1//EN"
 "http://www.w3.org/Graphics/SVG/1.1/DTD/svg11.dtd">
<!-- Generated by graphviz version 2.26.3 (20100126.1600)
 -->
<!-- Title: models_diagram Pages: 1 -->
<svg width="521pt" height="586pt"
 viewBox="0.00 0.00 521.00 586.00" xmlns="http://www.w3.org/2000/svg" xmlns:xlink="http://www.w3.org/1999/xlink">
<g id="graph1" class="graph" transform="scale(1 1) rotate(0) translate(4 582)">
<title>models_diagram</title>
<polygon fill="white" stroke="white" points="-4,5 -4,-582 518,-582 518,5 -4,5"/>
<!-- _diagram_info -->
<g id="node1" class="node"><title>_diagram_info</title>
<text text-anchor="start" x="161" y="-561.8" font-family="Times Roman,serif" font-size="13.00">Models diagram</text>
<text text-anchor="start" x="161" y="-548.8" font-family="Times Roman,serif" font-size="13.00">Date: May 25 2012 &#45; 09:01</text>
<text text-anchor="start" x="161" y="-535.8" font-family="Times Roman,serif" font-size="13.00">Migration version: 20120522151353</text>
<text text-anchor="start" x="161" y="-522.8" font-family="Times Roman,serif" font-size="13.00">Generated by RailRoady 1.0.7</text>
<text text-anchor="start" x="161" y="-509.8" font-family="Times Roman,serif" font-size="13.00">http://railroady.prestonlee.com</text>
</g>
<!-- VersionManager -->
<g id="node2" class="node"><title>VersionManager</title>
<ellipse fill="none" stroke="black" cx="181" cy="-378" rx="70.9937" ry="18"/>
<text text-anchor="middle" x="181" y="-372.9" font-family="Times Roman,serif" font-size="14.00">VersionManager</text>
</g>
<!-- Step -->
<g id="node14" class="node"><title>Step</title>
<ellipse fill="none" stroke="black" cx="240" cy="-306" rx="27" ry="18"/>
<text text-anchor="middle" x="240" y="-300.9" font-family="Times Roman,serif" font-size="14.00">Step</text>
</g>
<!-- VersionManager&#45;&gt;Step -->
<g id="edge2" class="edge"><title>VersionManager&#45;&gt;Step</title>
<path fill="none" stroke="#5ed90f" d="M200.732,-353.921C207.028,-346.237 213.993,-337.737 220.288,-330.056"/>
<ellipse fill="none" stroke="#5ed90f" cx="198.12" cy="-357.108" rx="4.00002" ry="4.00002"/>
<polygon fill="#5ed90f" stroke="#5ed90f" points="220.453,-329.854 230.272,-324.971 223.622,-325.986 226.791,-322.119 226.791,-322.119 226.791,-322.119 223.622,-325.986 223.311,-319.267 220.453,-329.854 220.453,-329.854"/>
</g>
<!-- FileOutput -->
<g id="node3" class="node"><title>FileOutput</title>
<ellipse fill="none" stroke="black" cx="50" cy="-90" rx="50.1936" ry="18"/>
<text text-anchor="middle" x="50" y="-84.9" font-family="Times Roman,serif" font-size="14.00">FileOutput</text>
</g>
<!-- PlainOutput -->
<g id="node4" class="node"><title>PlainOutput</title>
<ellipse fill="none" stroke="black" cx="173" cy="-90" rx="55.2451" ry="18"/>
<text text-anchor="middle" x="173" y="-84.9" font-family="Times Roman,serif" font-size="14.00">PlainOutput</text>
</g>
<!-- Commit -->
<g id="node5" class="node"><title>Commit</title>
<ellipse fill="none" stroke="black" cx="252" cy="-450" rx="40.9464" ry="18"/>
<text text-anchor="middle" x="252" y="-444.9" font-family="Times Roman,serif" font-size="14.00">Commit</text>
</g>
<!-- Build -->
<g id="node9" class="node"><title>Build</title>
<ellipse fill="none" stroke="black" cx="300" cy="-378" rx="30.0465" ry="18"/>
<text text-anchor="middle" x="300" y="-372.9" font-family="Times Roman,serif" font-size="14.00">Build</text>
</g>
<!-- Commit&#45;&gt;Build -->
<g id="edge8" class="edge"><title>Commit&#45;&gt;Build</title>
<path fill="none" stroke="#6d758c" d="M268.14,-425.79C272.916,-418.626 278.159,-410.761 282.988,-403.517"/>
<ellipse fill="none" stroke="#6d758c" cx="265.838" cy="-429.243" rx="4.00002" ry="4.00002"/>
<polygon fill="#6d758c" stroke="#6d758c" points="283.271,-403.093 292.562,-397.269 286.045,-398.933 288.818,-394.773 288.818,-394.773 288.818,-394.773 286.045,-398.933 285.074,-392.277 283.271,-403.093 283.271,-403.093"/>
</g>
<!-- User -->
<g id="node6" class="node"><title>User</title>
<ellipse fill="none" stroke="black" cx="485" cy="-541" rx="27.9475" ry="18"/>
<text text-anchor="middle" x="485" y="-535.9" font-family="Times Roman,serif" font-size="14.00">User</text>
</g>
<!-- Project -->
<g id="node7" class="node"><title>Project</title>
<ellipse fill="none" stroke="black" cx="403" cy="-541" rx="35.8982" ry="18"/>
<text text-anchor="middle" x="403" y="-535.9" font-family="Times Roman,serif" font-size="14.00">Project</text>
</g>
<!-- Branch -->
<g id="node8" class="node"><title>Branch</title>
<ellipse fill="none" stroke="black" cx="348" cy="-450" rx="37.194" ry="18"/>
<text text-anchor="middle" x="348" y="-444.9" font-family="Times Roman,serif" font-size="14.00">Branch</text>
</g>
<!-- Project&#45;&gt;Branch -->
<g id="edge12" class="edge"><title>Project&#45;&gt;Branch</title>
<path fill="none" stroke="#6bace1" d="M388.039,-516.246C380.532,-503.826 371.44,-488.782 363.818,-476.172"/>
<ellipse fill="none" stroke="#6bace1" cx="390.326" cy="-520.031" rx="4.00002" ry="4.00002"/>
<polygon fill="#6bace1" stroke="#6bace1" points="363.745,-476.05 362.423,-465.164 361.158,-471.771 358.572,-467.492 358.572,-467.492 358.572,-467.492 361.158,-471.771 354.721,-469.82 363.745,-476.05 363.745,-476.05"/>
</g>
<!-- Dependency -->
<g id="node13" class="node"><title>Dependency</title>
<ellipse fill="none" stroke="black" cx="458" cy="-450" rx="55.2451" ry="18"/>
<text text-anchor="middle" x="458" y="-444.9" font-family="Times Roman,serif" font-size="14.00">Dependency</text>
</g>
<!-- Project&#45;&gt;Dependency -->
<g id="edge10" class="edge"><title>Project&#45;&gt;Dependency</title>
<path fill="none" stroke="#e1542f" d="M417.932,-516.294C425.386,-503.961 434.41,-489.031 442.005,-476.464"/>
<ellipse fill="none" stroke="#e1542f" cx="415.674" cy="-520.031" rx="4.00002" ry="4.00002"/>
<polygon fill="#e1542f" stroke="#e1542f" points="442.068,-476.361 451.092,-470.13 444.654,-472.081 447.24,-467.802 447.24,-467.802 447.24,-467.802 444.654,-472.081 443.389,-465.475 442.068,-476.361 442.068,-476.361"/>
</g>
<!-- Branch&#45;&gt;Build -->
<g id="edge14" class="edge"><title>Branch&#45;&gt;Build</title>
<path fill="none" stroke="#124880" d="M331.86,-425.79C327.084,-418.626 321.841,-410.761 317.012,-403.517"/>
<ellipse fill="none" stroke="#124880" cx="334.162" cy="-429.243" rx="4.00002" ry="4.00002"/>
<polygon fill="#124880" stroke="#124880" points="316.729,-403.093 314.926,-392.277 313.955,-398.933 311.182,-394.773 311.182,-394.773 311.182,-394.773 313.955,-398.933 307.438,-397.269 316.729,-403.093 316.729,-403.093"/>
</g>
<!-- Build&#45;&gt;Step -->
<g id="edge16" class="edge"><title>Build&#45;&gt;Step</title>
<path fill="none" stroke="#d54b15" d="M281.235,-355.482C274.396,-347.275 266.647,-337.977 259.728,-329.673"/>
<ellipse fill="none" stroke="#d54b15" cx="283.824" cy="-358.589" rx="4.00002" ry="4.00002"/>
<polygon fill="#d54b15" stroke="#d54b15" points="259.551,-329.461 256.606,-318.898 256.35,-325.62 253.149,-321.778 253.149,-321.778 253.149,-321.778 256.35,-325.62 249.692,-324.659 259.551,-329.461 259.551,-329.461"/>
</g>
<!-- TaggedOutput -->
<g id="node10" class="node"><title>TaggedOutput</title>
<ellipse fill="none" stroke="black" cx="308" cy="-90" rx="61.8953" ry="18"/>
<text text-anchor="middle" x="308" y="-84.9" font-family="Times Roman,serif" font-size="14.00">TaggedOutput</text>
</g>
<!-- Tag -->
<g id="node11" class="node"><title>Tag</title>
<ellipse fill="none" stroke="black" cx="353" cy="-18" rx="27" ry="18"/>
<text text-anchor="middle" x="353" y="-12.9" font-family="Times Roman,serif" font-size="14.00">Tag</text>
</g>
<!-- TaggedOutput&#45;&gt;Tag -->
<g id="edge18" class="edge"><title>TaggedOutput&#45;&gt;Tag</title>
<path fill="none" stroke="#ba5e4e" d="M323.474,-65.2417C327.84,-58.2557 332.599,-50.642 336.995,-43.6073"/>
<ellipse fill="none" stroke="#ba5e4e" cx="321.244" cy="-68.8102" rx="4.00002" ry="4.00002"/>
<polygon fill="#ba5e4e" stroke="#ba5e4e" points="337.014,-43.5772 346.13,-37.4822 339.664,-39.3372 342.314,-35.0972 342.314,-35.0972 342.314,-35.0972 339.664,-39.3372 338.498,-32.7122 337.014,-43.5772 337.014,-43.5772"/>
</g>
<!-- Output -->
<g id="node12" class="node"><title>Output</title>
<ellipse fill="none" stroke="black" cx="240" cy="-162" rx="35.8982" ry="18"/>
<text text-anchor="middle" x="240" y="-156.9" font-family="Times Roman,serif" font-size="14.00">Output</text>
</g>
<!-- Output&#45;&gt;FileOutput -->
<g id="edge4" class="edge"><title>Output&#45;&gt;FileOutput</title>
<path fill="none" stroke="black" d="M211.143,-151.065C177.196,-138.201 120.881,-116.86 84.6159,-103.118"/>
</g>
<!-- Output&#45;&gt;PlainOutput -->
<g id="edge6" class="edge"><title>Output&#45;&gt;PlainOutput</title>
<path fill="none" stroke="black" d="M224.797,-145.662C214.141,-134.211 199.922,-118.931 189.077,-107.277"/>
</g>
<!-- Output&#45;&gt;TaggedOutput -->
<g id="edge20" class="edge"><title>Output&#45;&gt;TaggedOutput</title>
<path fill="none" stroke="black" d="M255.43,-145.662C266.167,-134.294 280.468,-119.152 291.443,-107.531"/>
</g>
<!-- Output&#45;&gt;Tag -->
<g id="edge22" class="edge"><title>Output&#45;&gt;Tag</title>
<path fill="none" stroke="#468b4b" d="M280.403,-151.748C317.179,-141.502 367.446,-124.884 379,-108 392.4,-88.418 382.083,-61.9248 370.728,-42.7577"/>
<ellipse fill="none" stroke="#468b4b" cx="276.171" cy="-152.905" rx="4.00001" ry="4.00001"/>
<polygon fill="#468b4b" stroke="#468b4b" points="370.696,-42.7072 369.148,-31.8513 368.021,-38.4831 365.346,-34.259 365.346,-34.259 365.346,-34.259 368.021,-38.4831 361.544,-36.6668 370.696,-42.7072 370.696,-42.7072"/>
</g>
<!-- Action -->
<g id="node15" class="node"><title>Action</title>
<ellipse fill="none" stroke="black" cx="240" cy="-234" rx="35.8982" ry="18"/>
<text text-anchor="middle" x="240" y="-228.9" font-family="Times Roman,serif" font-size="14.00">Action</text>
</g>
<!-- Step&#45;&gt;Action -->
<g id="edge24" class="edge"><title>Step&#45;&gt;Action</title>
<path fill="none" stroke="#3d9a17" d="M240,-279.814C240,-274.278 240,-268.405 240,-262.778"/>
<ellipse fill="none" stroke="#3d9a17" cx="240" cy="-283.831" rx="4" ry="4"/>
<polygon fill="#3d9a17" stroke="#3d9a17" points="240,-262.413 244.5,-252.413 240,-257.413 240,-252.413 240,-252.413 240,-252.413 240,-257.413 235.5,-252.413 240,-262.413 240,-262.413"/>
</g>
<!-- Action&#45;&gt;Output -->
<g id="edge26" class="edge"><title>Action&#45;&gt;Output</title>
<path fill="none" stroke="#6347a4" d="M240,-207.814C240,-202.278 240,-196.405 240,-190.778"/>
<ellipse fill="none" stroke="#6347a4" cx="240" cy="-211.831" rx="4" ry="4"/>
<polygon fill="#6347a4" stroke="#6347a4" points="240,-190.413 244.5,-180.413 240,-185.413 240,-180.413 240,-180.413 240,-180.413 240,-185.413 235.5,-180.413 240,-190.413 240,-190.413"/>
</g>
</g>
</svg>
