<?xml version="1.0" encoding="UTF-8" standalone="no"?>
<!DOCTYPE svg PUBLIC "-//W3C//DTD SVG 1.1//EN"
 "http://www.w3.org/Graphics/SVG/1.1/DTD/svg11.dtd">
<!-- Generated by graphviz version 2.26.3 (20100126.1600)
 -->
<!-- Title: models_diagram Pages: 1 -->
<svg width="811pt" height="1304pt"
 viewBox="0.00 0.00 811.00 1304.00" xmlns="http://www.w3.org/2000/svg" xmlns:xlink="http://www.w3.org/1999/xlink">
<g id="graph1" class="graph" transform="scale(1 1) rotate(0) translate(4 1300)">
<title>models_diagram</title>
<polygon fill="white" stroke="white" points="-4,5 -4,-1300 808,-1300 808,5 -4,5"/>
<!-- _diagram_info -->
<g id="node1" class="node"><title>_diagram_info</title>
<text text-anchor="start" x="245" y="-1157.8" font-family="Times Roman,serif" font-size="13.00">Models diagram</text>
<text text-anchor="start" x="245" y="-1144.8" font-family="Times Roman,serif" font-size="13.00">Date: May 25 2012 &#45; 09:00</text>
<text text-anchor="start" x="245" y="-1131.8" font-family="Times Roman,serif" font-size="13.00">Migration version: 20120522151353</text>
<text text-anchor="start" x="245" y="-1118.8" font-family="Times Roman,serif" font-size="13.00">Generated by RailRoady 1.0.7</text>
<text text-anchor="start" x="245" y="-1105.8" font-family="Times Roman,serif" font-size="13.00">http://railroady.prestonlee.com</text>
</g>
<!-- VersionManager -->
<g id="node2" class="node"><title>VersionManager</title>
<polyline fill="none" stroke="black" points="162,-698.5 270,-698.5 "/>
<path fill="none" stroke="black" d="M270,-698.5C276,-698.5 282,-704.5 282,-710.5"/>
<polyline fill="none" stroke="black" points="282,-710.5 282,-777.5 "/>
<path fill="none" stroke="black" d="M282,-777.5C282,-783.5 276,-789.5 270,-789.5"/>
<polyline fill="none" stroke="black" points="270,-789.5 162,-789.5 "/>
<path fill="none" stroke="black" d="M162,-789.5C156,-789.5 150,-783.5 150,-777.5"/>
<polyline fill="none" stroke="black" points="150,-777.5 150,-710.5 "/>
<path fill="none" stroke="black" d="M150,-710.5C150,-704.5 156,-698.5 162,-698.5"/>
<text text-anchor="middle" x="216" y="-772.9" font-family="Times Roman,serif" font-size="14.00">VersionManager</text>
<polyline fill="none" stroke="black" points="150,-766.5 282,-766.5 "/>
<text text-anchor="start" x="158" y="-749.9" font-family="Times Roman,serif" font-size="14.00">version :string</text>
<text text-anchor="start" x="158" y="-734.9" font-family="Times Roman,serif" font-size="14.00">kind :string</text>
<text text-anchor="start" x="158" y="-719.9" font-family="Times Roman,serif" font-size="14.00">created_at :datetime</text>
<text text-anchor="start" x="158" y="-704.9" font-family="Times Roman,serif" font-size="14.00">updated_at :datetime</text>
</g>
<!-- Step -->
<g id="node14" class="node"><title>Step</title>
<polyline fill="none" stroke="black" points="237,-577 345,-577 "/>
<path fill="none" stroke="black" d="M345,-577C351,-577 357,-583 357,-589"/>
<polyline fill="none" stroke="black" points="357,-589 357,-641 "/>
<path fill="none" stroke="black" d="M357,-641C357,-647 351,-653 345,-653"/>
<polyline fill="none" stroke="black" points="345,-653 237,-653 "/>
<path fill="none" stroke="black" d="M237,-653C231,-653 225,-647 225,-641"/>
<polyline fill="none" stroke="black" points="225,-641 225,-589 "/>
<path fill="none" stroke="black" d="M225,-589C225,-583 231,-577 237,-577"/>
<text text-anchor="middle" x="291" y="-636.4" font-family="Times Roman,serif" font-size="14.00">Step</text>
<polyline fill="none" stroke="black" points="225,-630 357,-630 "/>
<text text-anchor="start" x="233" y="-613.4" font-family="Times Roman,serif" font-size="14.00">name :string</text>
<text text-anchor="start" x="233" y="-598.4" font-family="Times Roman,serif" font-size="14.00">created_at :datetime</text>
<text text-anchor="start" x="233" y="-583.4" font-family="Times Roman,serif" font-size="14.00">updated_at :datetime</text>
</g>
<!-- VersionManager&#45;&gt;Step -->
<g id="edge2" class="edge"><title>VersionManager&#45;&gt;Step</title>
<path fill="none" stroke="#608282" d="M246.733,-691.14C252.359,-681.463 258.195,-671.424 263.713,-661.934"/>
<ellipse fill="none" stroke="#608282" cx="244.664" cy="-694.698" rx="4.00002" ry="4.00002"/>
<polygon fill="#608282" stroke="#608282" points="263.861,-661.679 272.778,-655.296 266.374,-657.356 268.887,-653.034 268.887,-653.034 268.887,-653.034 266.374,-657.356 264.997,-650.772 263.861,-661.679 263.861,-661.679"/>
</g>
<!-- FileOutput -->
<g id="node3" class="node"><title>FileOutput</title>
<polyline fill="none" stroke="black" points="12,-115 120,-115 "/>
<path fill="none" stroke="black" d="M120,-115C126,-115 132,-121 132,-127"/>
<polyline fill="none" stroke="black" points="132,-127 132,-209 "/>
<path fill="none" stroke="black" d="M132,-209C132,-215 126,-221 120,-221"/>
<polyline fill="none" stroke="black" points="120,-221 12,-221 "/>
<path fill="none" stroke="black" d="M12,-221C6,-221 0,-215 0,-209"/>
<polyline fill="none" stroke="black" points="0,-209 0,-127 "/>
<path fill="none" stroke="black" d="M0,-127C0,-121 6,-115 12,-115"/>
<text text-anchor="middle" x="66" y="-204.4" font-family="Times Roman,serif" font-size="14.00">FileOutput</text>
<polyline fill="none" stroke="black" points="0,-198 132,-198 "/>
<text text-anchor="start" x="8" y="-181.4" font-family="Times Roman,serif" font-size="14.00">name :string</text>
<text text-anchor="start" x="8" y="-166.4" font-family="Times Roman,serif" font-size="14.00">content :text</text>
<text text-anchor="start" x="8" y="-151.4" font-family="Times Roman,serif" font-size="14.00">content_kind :string</text>
<text text-anchor="start" x="8" y="-136.4" font-family="Times Roman,serif" font-size="14.00">created_at :datetime</text>
<text text-anchor="start" x="8" y="-121.4" font-family="Times Roman,serif" font-size="14.00">updated_at :datetime</text>
</g>
<!-- PlainOutput -->
<g id="node4" class="node"><title>PlainOutput</title>
<polyline fill="none" stroke="black" points="162,-115 270,-115 "/>
<path fill="none" stroke="black" d="M270,-115C276,-115 282,-121 282,-127"/>
<polyline fill="none" stroke="black" points="282,-127 282,-209 "/>
<path fill="none" stroke="black" d="M282,-209C282,-215 276,-221 270,-221"/>
<polyline fill="none" stroke="black" points="270,-221 162,-221 "/>
<path fill="none" stroke="black" d="M162,-221C156,-221 150,-215 150,-209"/>
<polyline fill="none" stroke="black" points="150,-209 150,-127 "/>
<path fill="none" stroke="black" d="M150,-127C150,-121 156,-115 162,-115"/>
<text text-anchor="middle" x="216" y="-204.4" font-family="Times Roman,serif" font-size="14.00">PlainOutput</text>
<polyline fill="none" stroke="black" points="150,-198 282,-198 "/>
<text text-anchor="start" x="158" y="-181.4" font-family="Times Roman,serif" font-size="14.00">name :string</text>
<text text-anchor="start" x="158" y="-166.4" font-family="Times Roman,serif" font-size="14.00">content :text</text>
<text text-anchor="start" x="158" y="-151.4" font-family="Times Roman,serif" font-size="14.00">content_kind :string</text>
<text text-anchor="start" x="158" y="-136.4" font-family="Times Roman,serif" font-size="14.00">created_at :datetime</text>
<text text-anchor="start" x="158" y="-121.4" font-family="Times Roman,serif" font-size="14.00">updated_at :datetime</text>
</g>
<!-- Commit -->
<g id="node5" class="node"><title>Commit</title>
<polyline fill="none" stroke="black" points="238,-835 346,-835 "/>
<path fill="none" stroke="black" d="M346,-835C352,-835 358,-841 358,-847"/>
<polyline fill="none" stroke="black" points="358,-847 358,-929 "/>
<path fill="none" stroke="black" d="M358,-929C358,-935 352,-941 346,-941"/>
<polyline fill="none" stroke="black" points="346,-941 238,-941 "/>
<path fill="none" stroke="black" d="M238,-941C232,-941 226,-935 226,-929"/>
<polyline fill="none" stroke="black" points="226,-929 226,-847 "/>
<path fill="none" stroke="black" d="M226,-847C226,-841 232,-835 238,-835"/>
<text text-anchor="middle" x="292" y="-924.4" font-family="Times Roman,serif" font-size="14.00">Commit</text>
<polyline fill="none" stroke="black" points="226,-918 358,-918 "/>
<text text-anchor="start" x="234" y="-901.4" font-family="Times Roman,serif" font-size="14.00">digest :string</text>
<text text-anchor="start" x="234" y="-886.4" font-family="Times Roman,serif" font-size="14.00">url :string</text>
<text text-anchor="start" x="234" y="-871.4" font-family="Times Roman,serif" font-size="14.00">timestamp :datetime</text>
<text text-anchor="start" x="234" y="-856.4" font-family="Times Roman,serif" font-size="14.00">created_at :datetime</text>
<text text-anchor="start" x="234" y="-841.4" font-family="Times Roman,serif" font-size="14.00">updated_at :datetime</text>
</g>
<!-- Build -->
<g id="node9" class="node"><title>Build</title>
<polyline fill="none" stroke="black" points="312,-691 422,-691 "/>
<path fill="none" stroke="black" d="M422,-691C428,-691 434,-697 434,-703"/>
<polyline fill="none" stroke="black" points="434,-703 434,-785 "/>
<path fill="none" stroke="black" d="M434,-785C434,-791 428,-797 422,-797"/>
<polyline fill="none" stroke="black" points="422,-797 312,-797 "/>
<path fill="none" stroke="black" d="M312,-797C306,-797 300,-791 300,-785"/>
<polyline fill="none" stroke="black" points="300,-785 300,-703 "/>
<path fill="none" stroke="black" d="M300,-703C300,-697 306,-691 312,-691"/>
<text text-anchor="middle" x="367" y="-780.4" font-family="Times Roman,serif" font-size="14.00">Build</text>
<polyline fill="none" stroke="black" points="300,-774 434,-774 "/>
<text text-anchor="start" x="308" y="-757.4" font-family="Times Roman,serif" font-size="14.00">created_at :datetime</text>
<text text-anchor="start" x="308" y="-742.4" font-family="Times Roman,serif" font-size="14.00">updated_at :datetime</text>
<text text-anchor="start" x="308" y="-727.4" font-family="Times Roman,serif" font-size="14.00">started_at :datetime</text>
<text text-anchor="start" x="308" y="-712.4" font-family="Times Roman,serif" font-size="14.00">finished_at :datetime</text>
<text text-anchor="start" x="308" y="-697.4" font-family="Times Roman,serif" font-size="14.00">status :string</text>
</g>
<!-- Commit&#45;&gt;Build -->
<g id="edge8" class="edge"><title>Commit&#45;&gt;Build</title>
<path fill="none" stroke="#84fa26" d="M323.471,-827.577C327.049,-820.705 330.703,-813.689 334.298,-806.788"/>
<ellipse fill="none" stroke="#84fa26" cx="321.562" cy="-831.241" rx="4.00002" ry="4.00002"/>
<polygon fill="#84fa26" stroke="#84fa26" points="334.53,-806.342 343.14,-799.552 336.84,-801.908 339.149,-797.473 339.149,-797.473 339.149,-797.473 336.84,-801.908 335.158,-795.394 334.53,-806.342 334.53,-806.342"/>
</g>
<!-- User -->
<g id="node6" class="node"><title>User</title>
<polyline fill="none" stroke="black" points="612.5,-979 791.5,-979 "/>
<path fill="none" stroke="black" d="M791.5,-979C797.5,-979 803.5,-985 803.5,-991"/>
<polyline fill="none" stroke="black" points="803.5,-991 803.5,-1283 "/>
<path fill="none" stroke="black" d="M803.5,-1283C803.5,-1289 797.5,-1295 791.5,-1295"/>
<polyline fill="none" stroke="black" points="791.5,-1295 612.5,-1295 "/>
<path fill="none" stroke="black" d="M612.5,-1295C606.5,-1295 600.5,-1289 600.5,-1283"/>
<polyline fill="none" stroke="black" points="600.5,-1283 600.5,-991 "/>
<path fill="none" stroke="black" d="M600.5,-991C600.5,-985 606.5,-979 612.5,-979"/>
<text text-anchor="middle" x="702" y="-1278.4" font-family="Times Roman,serif" font-size="14.00">User</text>
<polyline fill="none" stroke="black" points="600.5,-1272 803.5,-1272 "/>
<text text-anchor="start" x="608.5" y="-1255.4" font-family="Times Roman,serif" font-size="14.00">email :string</text>
<text text-anchor="start" x="608.5" y="-1240.4" font-family="Times Roman,serif" font-size="14.00">encrypted_password :string</text>
<text text-anchor="start" x="608.5" y="-1225.4" font-family="Times Roman,serif" font-size="14.00">reset_password_token :string</text>
<text text-anchor="start" x="608.5" y="-1210.4" font-family="Times Roman,serif" font-size="14.00">reset_password_sent_at :datetime</text>
<text text-anchor="start" x="608.5" y="-1195.4" font-family="Times Roman,serif" font-size="14.00">remember_created_at :datetime</text>
<text text-anchor="start" x="608.5" y="-1180.4" font-family="Times Roman,serif" font-size="14.00">current_sign_in_at :datetime</text>
<text text-anchor="start" x="608.5" y="-1165.4" font-family="Times Roman,serif" font-size="14.00">last_sign_in_at :datetime</text>
<text text-anchor="start" x="608.5" y="-1150.4" font-family="Times Roman,serif" font-size="14.00">current_sign_in_ip :string</text>
<text text-anchor="start" x="608.5" y="-1135.4" font-family="Times Roman,serif" font-size="14.00">last_sign_in_ip :string</text>
<text text-anchor="start" x="608.5" y="-1120.4" font-family="Times Roman,serif" font-size="14.00">created_at :datetime</text>
<text text-anchor="start" x="608.5" y="-1105.4" font-family="Times Roman,serif" font-size="14.00">updated_at :datetime</text>
<text text-anchor="start" x="608.5" y="-1090.4" font-family="Times Roman,serif" font-size="14.00">username :string</text>
<text text-anchor="start" x="608.5" y="-1075.4" font-family="Times Roman,serif" font-size="14.00">confirmation_token :string</text>
<text text-anchor="start" x="608.5" y="-1060.4" font-family="Times Roman,serif" font-size="14.00">confirmed_at :datetime</text>
<text text-anchor="start" x="608.5" y="-1045.4" font-family="Times Roman,serif" font-size="14.00">confirmation_sent_at :datetime</text>
<text text-anchor="start" x="608.5" y="-1030.4" font-family="Times Roman,serif" font-size="14.00">unconfirmed_email :string</text>
<text text-anchor="start" x="608.5" y="-1015.4" font-family="Times Roman,serif" font-size="14.00">failed_attempts :integer</text>
<text text-anchor="start" x="608.5" y="-1000.4" font-family="Times Roman,serif" font-size="14.00">unlock_token :string</text>
<text text-anchor="start" x="608.5" y="-985.4" font-family="Times Roman,serif" font-size="14.00">locked_at :datetime</text>
</g>
<!-- Project -->
<g id="node7" class="node"><title>Project</title>
<polyline fill="none" stroke="black" points="463,-1084 571,-1084 "/>
<path fill="none" stroke="black" d="M571,-1084C577,-1084 583,-1090 583,-1096"/>
<polyline fill="none" stroke="black" points="583,-1096 583,-1178 "/>
<path fill="none" stroke="black" d="M583,-1178C583,-1184 577,-1190 571,-1190"/>
<polyline fill="none" stroke="black" points="571,-1190 463,-1190 "/>
<path fill="none" stroke="black" d="M463,-1190C457,-1190 451,-1184 451,-1178"/>
<polyline fill="none" stroke="black" points="451,-1178 451,-1096 "/>
<path fill="none" stroke="black" d="M451,-1096C451,-1090 457,-1084 463,-1084"/>
<text text-anchor="middle" x="517" y="-1173.4" font-family="Times Roman,serif" font-size="14.00">Project</text>
<polyline fill="none" stroke="black" points="451,-1167 583,-1167 "/>
<text text-anchor="start" x="459" y="-1150.4" font-family="Times Roman,serif" font-size="14.00">name :string</text>
<text text-anchor="start" x="459" y="-1135.4" font-family="Times Roman,serif" font-size="14.00">description :text</text>
<text text-anchor="start" x="459" y="-1120.4" font-family="Times Roman,serif" font-size="14.00">website :string</text>
<text text-anchor="start" x="459" y="-1105.4" font-family="Times Roman,serif" font-size="14.00">created_at :datetime</text>
<text text-anchor="start" x="459" y="-1090.4" font-family="Times Roman,serif" font-size="14.00">updated_at :datetime</text>
</g>
<!-- Branch -->
<g id="node8" class="node"><title>Branch</title>
<polyline fill="none" stroke="black" points="388,-850 496,-850 "/>
<path fill="none" stroke="black" d="M496,-850C502,-850 508,-856 508,-862"/>
<polyline fill="none" stroke="black" points="508,-862 508,-914 "/>
<path fill="none" stroke="black" d="M508,-914C508,-920 502,-926 496,-926"/>
<polyline fill="none" stroke="black" points="496,-926 388,-926 "/>
<path fill="none" stroke="black" d="M388,-926C382,-926 376,-920 376,-914"/>
<polyline fill="none" stroke="black" points="376,-914 376,-862 "/>
<path fill="none" stroke="black" d="M376,-862C376,-856 382,-850 388,-850"/>
<text text-anchor="middle" x="442" y="-909.4" font-family="Times Roman,serif" font-size="14.00">Branch</text>
<polyline fill="none" stroke="black" points="376,-903 508,-903 "/>
<text text-anchor="start" x="384" y="-886.4" font-family="Times Roman,serif" font-size="14.00">name :string</text>
<text text-anchor="start" x="384" y="-871.4" font-family="Times Roman,serif" font-size="14.00">created_at :datetime</text>
<text text-anchor="start" x="384" y="-856.4" font-family="Times Roman,serif" font-size="14.00">updated_at :datetime</text>
</g>
<!-- Project&#45;&gt;Branch -->
<g id="edge12" class="edge"><title>Project&#45;&gt;Branch</title>
<path fill="none" stroke="#807c67" d="M498.693,-1076.22C485.675,-1033 468.434,-975.761 456.397,-935.797"/>
<ellipse fill="none" stroke="#807c67" cx="499.849" cy="-1080.06" rx="4.00001" ry="4.00001"/>
<polygon fill="#807c67" stroke="#807c67" points="456.338,-935.602 457.763,-924.729 454.896,-930.815 453.454,-926.027 453.454,-926.027 453.454,-926.027 454.896,-930.815 449.145,-927.325 456.338,-935.602 456.338,-935.602"/>
</g>
<!-- Dependency -->
<g id="node13" class="node"><title>Dependency</title>
<polyline fill="none" stroke="black" points="538,-835 646,-835 "/>
<path fill="none" stroke="black" d="M646,-835C652,-835 658,-841 658,-847"/>
<polyline fill="none" stroke="black" points="658,-847 658,-929 "/>
<path fill="none" stroke="black" d="M658,-929C658,-935 652,-941 646,-941"/>
<polyline fill="none" stroke="black" points="646,-941 538,-941 "/>
<path fill="none" stroke="black" d="M538,-941C532,-941 526,-935 526,-929"/>
<polyline fill="none" stroke="black" points="526,-929 526,-847 "/>
<path fill="none" stroke="black" d="M526,-847C526,-841 532,-835 538,-835"/>
<text text-anchor="middle" x="592" y="-924.4" font-family="Times Roman,serif" font-size="14.00">Dependency</text>
<polyline fill="none" stroke="black" points="526,-918 658,-918 "/>
<text text-anchor="start" x="534" y="-901.4" font-family="Times Roman,serif" font-size="14.00">name :string</text>
<text text-anchor="start" x="534" y="-886.4" font-family="Times Roman,serif" font-size="14.00">url :string</text>
<text text-anchor="start" x="534" y="-871.4" font-family="Times Roman,serif" font-size="14.00">stage :string</text>
<text text-anchor="start" x="534" y="-856.4" font-family="Times Roman,serif" font-size="14.00">created_at :datetime</text>
<text text-anchor="start" x="534" y="-841.4" font-family="Times Roman,serif" font-size="14.00">updated_at :datetime</text>
</g>
<!-- Project&#45;&gt;Dependency -->
<g id="edge10" class="edge"><title>Project&#45;&gt;Dependency</title>
<path fill="none" stroke="#19ea1d" d="M535.355,-1076.06C546.787,-1038.11 561.462,-989.387 573.011,-951.045"/>
<ellipse fill="none" stroke="#19ea1d" cx="534.151" cy="-1080.06" rx="4.00001" ry="4.00001"/>
<polygon fill="#19ea1d" stroke="#19ea1d" points="573.143,-950.605 580.336,-942.328 574.585,-945.817 576.027,-941.03 576.027,-941.03 576.027,-941.03 574.585,-945.817 571.718,-939.732 573.143,-950.605 573.143,-950.605"/>
</g>
<!-- Branch&#45;&gt;Build -->
<g id="edge14" class="edge"><title>Branch&#45;&gt;Build</title>
<path fill="none" stroke="#31fab6" d="M418.256,-842.411C412.27,-830.918 405.741,-818.383 399.41,-806.226"/>
<ellipse fill="none" stroke="#31fab6" cx="420.251" cy="-846.241" rx="4.00002" ry="4.00002"/>
<polygon fill="#31fab6" stroke="#31fab6" points="399.238,-805.897 398.61,-794.949 396.928,-801.462 394.619,-797.028 394.619,-797.028 394.619,-797.028 396.928,-801.462 390.627,-799.106 399.238,-805.897 399.238,-805.897"/>
</g>
<!-- Build&#45;&gt;Step -->
<g id="edge16" class="edge"><title>Build&#45;&gt;Step</title>
<path fill="none" stroke="#e6f7f6" d="M331.434,-683.631C327.131,-676.328 322.787,-668.954 318.622,-661.885"/>
<ellipse fill="none" stroke="#e6f7f6" cx="333.619" cy="-687.34" rx="4.00002" ry="4.00002"/>
<polygon fill="#e6f7f6" stroke="#e6f7f6" points="318.536,-661.739 317.338,-650.839 315.998,-657.431 313.46,-653.124 313.46,-653.124 313.46,-653.124 315.998,-657.431 309.583,-655.408 318.536,-661.739 318.536,-661.739"/>
</g>
<!-- TaggedOutput -->
<g id="node10" class="node"><title>TaggedOutput</title>
<polyline fill="none" stroke="black" points="312,-115 420,-115 "/>
<path fill="none" stroke="black" d="M420,-115C426,-115 432,-121 432,-127"/>
<polyline fill="none" stroke="black" points="432,-127 432,-209 "/>
<path fill="none" stroke="black" d="M432,-209C432,-215 426,-221 420,-221"/>
<polyline fill="none" stroke="black" points="420,-221 312,-221 "/>
<path fill="none" stroke="black" d="M312,-221C306,-221 300,-215 300,-209"/>
<polyline fill="none" stroke="black" points="300,-209 300,-127 "/>
<path fill="none" stroke="black" d="M300,-127C300,-121 306,-115 312,-115"/>
<text text-anchor="middle" x="366" y="-204.4" font-family="Times Roman,serif" font-size="14.00">TaggedOutput</text>
<polyline fill="none" stroke="black" points="300,-198 432,-198 "/>
<text text-anchor="start" x="308" y="-181.4" font-family="Times Roman,serif" font-size="14.00">name :string</text>
<text text-anchor="start" x="308" y="-166.4" font-family="Times Roman,serif" font-size="14.00">content :text</text>
<text text-anchor="start" x="308" y="-151.4" font-family="Times Roman,serif" font-size="14.00">content_kind :string</text>
<text text-anchor="start" x="308" y="-136.4" font-family="Times Roman,serif" font-size="14.00">created_at :datetime</text>
<text text-anchor="start" x="308" y="-121.4" font-family="Times Roman,serif" font-size="14.00">updated_at :datetime</text>
</g>
<!-- Tag -->
<g id="node11" class="node"><title>Tag</title>
<polyline fill="none" stroke="black" points="359,-1 467,-1 "/>
<path fill="none" stroke="black" d="M467,-1C473,-1 479,-7 479,-13"/>
<polyline fill="none" stroke="black" points="479,-13 479,-65 "/>
<path fill="none" stroke="black" d="M479,-65C479,-71 473,-77 467,-77"/>
<polyline fill="none" stroke="black" points="467,-77 359,-77 "/>
<path fill="none" stroke="black" d="M359,-77C353,-77 347,-71 347,-65"/>
<polyline fill="none" stroke="black" points="347,-65 347,-13 "/>
<path fill="none" stroke="black" d="M347,-13C347,-7 353,-1 359,-1"/>
<text text-anchor="middle" x="413" y="-60.4" font-family="Times Roman,serif" font-size="14.00">Tag</text>
<polyline fill="none" stroke="black" points="347,-54 479,-54 "/>
<text text-anchor="start" x="355" y="-37.4" font-family="Times Roman,serif" font-size="14.00">name :string</text>
<text text-anchor="start" x="355" y="-22.4" font-family="Times Roman,serif" font-size="14.00">created_at :datetime</text>
<text text-anchor="start" x="355" y="-7.4" font-family="Times Roman,serif" font-size="14.00">updated_at :datetime</text>
</g>
<!-- TaggedOutput&#45;&gt;Tag -->
<g id="edge18" class="edge"><title>TaggedOutput&#45;&gt;Tag</title>
<path fill="none" stroke="#e0f54c" d="M388.213,-107.032C390.708,-100.184 393.223,-93.2829 395.643,-86.6385"/>
<ellipse fill="none" stroke="#e0f54c" cx="386.757" cy="-111.028" rx="4.00001" ry="4.00001"/>
<polygon fill="#e0f54c" stroke="#e0f54c" points="395.687,-86.5193 403.338,-78.664 397.398,-81.8214 399.11,-77.1235 399.11,-77.1235 399.11,-77.1235 397.398,-81.8214 394.882,-75.583 395.687,-86.5193 395.687,-86.5193"/>
</g>
<!-- Output -->
<g id="node12" class="node"><title>Output</title>
<polyline fill="none" stroke="black" points="237,-259 345,-259 "/>
<path fill="none" stroke="black" d="M345,-259C351,-259 357,-265 357,-271"/>
<polyline fill="none" stroke="black" points="357,-271 357,-353 "/>
<path fill="none" stroke="black" d="M357,-353C357,-359 351,-365 345,-365"/>
<polyline fill="none" stroke="black" points="345,-365 237,-365 "/>
<path fill="none" stroke="black" d="M237,-365C231,-365 225,-359 225,-353"/>
<polyline fill="none" stroke="black" points="225,-353 225,-271 "/>
<path fill="none" stroke="black" d="M225,-271C225,-265 231,-259 237,-259"/>
<text text-anchor="middle" x="291" y="-348.4" font-family="Times Roman,serif" font-size="14.00">Output</text>
<polyline fill="none" stroke="black" points="225,-342 357,-342 "/>
<text text-anchor="start" x="233" y="-325.4" font-family="Times Roman,serif" font-size="14.00">name :string</text>
<text text-anchor="start" x="233" y="-310.4" font-family="Times Roman,serif" font-size="14.00">content :text</text>
<text text-anchor="start" x="233" y="-295.4" font-family="Times Roman,serif" font-size="14.00">content_kind :string</text>
<text text-anchor="start" x="233" y="-280.4" font-family="Times Roman,serif" font-size="14.00">created_at :datetime</text>
<text text-anchor="start" x="233" y="-265.4" font-family="Times Roman,serif" font-size="14.00">updated_at :datetime</text>
</g>
<!-- Output&#45;&gt;FileOutput -->
<g id="edge4" class="edge"><title>Output&#45;&gt;FileOutput</title>
<path fill="none" stroke="black" d="M224.92,-273.965C198.513,-258.349 168.015,-239.785 141,-222 138.052,-220.059 135.056,-218.053 132.044,-216.007"/>
</g>
<!-- Output&#45;&gt;PlainOutput -->
<g id="edge6" class="edge"><title>Output&#45;&gt;PlainOutput</title>
<path fill="none" stroke="black" d="M263.286,-258.789C256.943,-246.611 250.199,-233.662 243.851,-221.473"/>
</g>
<!-- Output&#45;&gt;TaggedOutput -->
<g id="edge20" class="edge"><title>Output&#45;&gt;TaggedOutput</title>
<path fill="none" stroke="black" d="M318.714,-258.789C325.057,-246.611 331.801,-233.662 338.149,-221.473"/>
</g>
<!-- Output&#45;&gt;Tag -->
<g id="edge22" class="edge"><title>Output&#45;&gt;Tag</title>
<path fill="none" stroke="#8b78a6" d="M364.438,-286.53C393.685,-272.356 424.309,-251.479 441,-222 464.504,-180.488 451.342,-125.598 436.129,-86.7964"/>
<ellipse fill="none" stroke="#8b78a6" cx="360.665" cy="-288.295" rx="4.00002" ry="4.00002"/>
<polygon fill="#8b78a6" stroke="#8b78a6" points="436.029,-86.5501 436.403,-75.5906 434.134,-81.9231 432.239,-77.296 432.239,-77.296 432.239,-77.296 434.134,-81.9231 428.075,-79.0015 436.029,-86.5501 436.029,-86.5501"/>
</g>
<!-- Action -->
<g id="node15" class="node"><title>Action</title>
<polyline fill="none" stroke="black" points="236,-403 346,-403 "/>
<path fill="none" stroke="black" d="M346,-403C352,-403 358,-409 358,-415"/>
<polyline fill="none" stroke="black" points="358,-415 358,-527 "/>
<path fill="none" stroke="black" d="M358,-527C358,-533 352,-539 346,-539"/>
<polyline fill="none" stroke="black" points="346,-539 236,-539 "/>
<path fill="none" stroke="black" d="M236,-539C230,-539 224,-533 224,-527"/>
<polyline fill="none" stroke="black" points="224,-527 224,-415 "/>
<path fill="none" stroke="black" d="M224,-415C224,-409 230,-403 236,-403"/>
<text text-anchor="middle" x="291" y="-522.4" font-family="Times Roman,serif" font-size="14.00">Action</text>
<polyline fill="none" stroke="black" points="224,-516 358,-516 "/>
<text text-anchor="start" x="232" y="-499.4" font-family="Times Roman,serif" font-size="14.00">name :string</text>
<text text-anchor="start" x="232" y="-484.4" font-family="Times Roman,serif" font-size="14.00">started_at :datetime</text>
<text text-anchor="start" x="232" y="-469.4" font-family="Times Roman,serif" font-size="14.00">finished_at :datetime</text>
<text text-anchor="start" x="232" y="-454.4" font-family="Times Roman,serif" font-size="14.00">description :text</text>
<text text-anchor="start" x="232" y="-439.4" font-family="Times Roman,serif" font-size="14.00">status :string</text>
<text text-anchor="start" x="232" y="-424.4" font-family="Times Roman,serif" font-size="14.00">created_at :datetime</text>
<text text-anchor="start" x="232" y="-409.4" font-family="Times Roman,serif" font-size="14.00">updated_at :datetime</text>
</g>
<!-- Step&#45;&gt;Action -->
<g id="edge24" class="edge"><title>Step&#45;&gt;Action</title>
<path fill="none" stroke="#6c509b" d="M291,-568.704C291,-562.522 291,-556.049 291,-549.504"/>
<ellipse fill="none" stroke="#6c509b" cx="291" cy="-572.789" rx="4" ry="4"/>
<polygon fill="#6c509b" stroke="#6c509b" points="291,-549.191 295.5,-539.191 291,-544.191 291,-539.191 291,-539.191 291,-539.191 291,-544.191 286.5,-539.191 291,-549.191 291,-549.191"/>
</g>
<!-- Action&#45;&gt;Output -->
<g id="edge26" class="edge"><title>Action&#45;&gt;Output</title>
<path fill="none" stroke="#2bbe28" d="M291,-394.432C291,-388.146 291,-381.835 291,-375.658"/>
<ellipse fill="none" stroke="#2bbe28" cx="291" cy="-398.647" rx="4" ry="4"/>
<polygon fill="#2bbe28" stroke="#2bbe28" points="291,-375.415 295.5,-365.415 291,-370.415 291,-365.415 291,-365.415 291,-365.415 291,-370.415 286.5,-365.415 291,-375.415 291,-375.415"/>
</g>
</g>
</svg>
